<svg width="24" height="24" viewBox="0 0 24 24" fill="none" xmlns="http://www.w3.org/2000/svg">
<path d="M5.40015 8.9999C5.40015 8.66853 5.66878 8.3999 6.00015 8.3999H13.0001C13.3315 8.3999 13.6001 8.66853 13.6001 8.9999C13.6001 9.33127 13.3315 9.5999 13.0001 9.5999H6.00015C5.66878 9.5999 5.40015 9.33127 5.40015 8.9999Z" fill="#212124"/>
<path d="M5.40015 12.9999C5.40015 12.6685 5.66878 12.3999 6.00015 12.3999H10.0001C10.3315 12.3999 10.6001 12.6685 10.6001 12.9999C10.6001 13.3313 10.3315 13.5999 10.0001 13.5999H6.00015C5.66878 13.5999 5.40015 13.3313 5.40015 12.9999Z" fill="#212124"/>
<path fill-rule="evenodd" clip-rule="evenodd" d="M18.6004 3.4999C18.6004 3.16853 18.3318 2.8999 18.0004 2.8999H2.00039C1.66902 2.8999 1.40039 3.16853 1.40039 3.4999V18.4999C1.40039 19.9358 2.56445 21.0999 4.00039 21.0999H20.0004C21.4363 21.0999 22.6004 19.9358 22.6004 18.4999V8.4999C22.6004 8.16853 22.3318 7.8999 22.0004 7.8999H18.6004V3.4999ZM17.4004 18.4999C17.4004 19.0154 17.5504 19.4958 17.8091 19.8999H4.00039C3.22719 19.8999 2.60039 19.2731 2.60039 18.4999V4.0999H17.4004V18.4999ZM21.4004 18.4999C21.4004 19.2731 20.7736 19.8999 20.0004 19.8999C19.2272 19.8999 18.6004 19.2731 18.6004 18.4999V9.0999H21.4004V18.4999Z" fill="#212124"/>
</svg>
