<svg width="24" height="24" viewBox="0 0 24 24" fill="none" xmlns="http://www.w3.org/2000/svg">
<path fill-rule="evenodd" clip-rule="evenodd" d="M12.0001 3.36235L3.2245 11.1628V20.7755H8.53065V16.0816C8.53065 14.1215 10.0399 12.6122 12.0001 12.6122C13.9602 12.6122 15.4695 14.1215 15.4695 16.0816V20.7755H20.7756V11.1628L12.0001 3.36235ZM12.5424 2.20611C12.2331 1.93118 11.767 1.93118 11.4577 2.20611L2.27399 10.3694C2.09971 10.5243 2 10.7464 2 10.9795V21.1837C2 21.6345 2.36548 22 2.81633 22H8.93881C9.38966 22 9.75514 21.6345 9.75514 21.1836V16.0816C9.75514 14.7978 10.7162 13.8367 12.0001 13.8367C13.2839 13.8367 14.245 14.7978 14.245 16.0816V21.1837C14.245 21.6345 14.6104 22 15.0613 22H21.1838C21.6346 22 22.0001 21.6345 22.0001 21.1837V10.9795C22.0001 10.7464 21.9004 10.5243 21.7261 10.3694L12.5424 2.20611Z" fill="#212124"/>
</svg>
