<svg width="24" height="24" viewBox="0 0 24 24" fill="none" xmlns="http://www.w3.org/2000/svg">
<path fill-rule="evenodd" clip-rule="evenodd" d="M12.0004 2.6001C8.9076 2.6001 6.40039 5.1073 6.40039 8.2001C6.40039 11.2929 8.9076 13.8001 12.0004 13.8001C15.0932 13.8001 17.6004 11.2929 17.6004 8.2001C17.6004 5.1073 15.0932 2.6001 12.0004 2.6001ZM7.60039 8.2001C7.60039 5.77004 9.57034 3.8001 12.0004 3.8001C14.4304 3.8001 16.4004 5.77004 16.4004 8.2001C16.4004 10.6301 14.4304 12.6001 12.0004 12.6001C9.57034 12.6001 7.60039 10.6301 7.60039 8.2001Z" fill="#212124"/>
<path fill-rule="evenodd" clip-rule="evenodd" d="M12.0004 14.6001C6.80891 14.6001 3.40039 17.4293 3.40039 21.2001C3.40039 21.5315 3.66902 21.8001 4.00039 21.8001H20.0004C20.3318 21.8001 20.6004 21.5315 20.6004 21.2001C20.6004 17.4293 17.1919 14.6001 12.0004 14.6001ZM12.0004 15.8001C16.4694 15.8001 19.0234 17.9948 19.3618 20.6001H4.639C4.97733 17.9948 7.53134 15.8001 12.0004 15.8001Z" fill="#212124"/>
</svg>
